<?xml version="1.0" encoding="utf-8"?>
<!-- Generator: Adobe Illustrator 19.0.0, SVG Export Plug-In . SVG Version: 6.00 Build 0)  -->
<svg version="1.1" id="Layer_1" xmlns="http://www.w3.org/2000/svg" xmlns:xlink="http://www.w3.org/1999/xlink" x="0px" y="0px"
	 viewBox="0 0 52.4 52.4" style="enable-background:new 0 0 52.4 52.4;" xml:space="preserve">
<style type="text/css">
	.st0{fill:#FFFFFF;}
</style>
<path id="XMLID_73_" class="st0" d="M26.2,0C11.7,0,0,11.7,0,26.2c0,14.5,11.7,26.2,26.2,26.2c14.5,0,26.2-11.7,26.2-26.2
	C52.4,11.7,40.7,0,26.2,0z M26.2,50.8c-13.6,0-24.6-11-24.6-24.6s11-24.6,24.6-24.6c13.6,0,24.6,11,24.6,24.6S39.8,50.8,26.2,50.8z"
	/>
<path id="XMLID_67_" class="st0" d="M37.7,17.2H14.7c-0.9,0-1.6,0.7-1.6,1.6v14.7c0,0.9,0.7,1.6,1.6,1.6h22.9c0.9,0,1.6-0.7,1.6-1.6
	V18.8C39.3,17.9,38.6,17.2,37.7,17.2z M36.2,18.8l-10,9.8l-9.9-9.8H36.2z M14.7,33.6V19.7l7.9,7.9l-6.2,6.1H14.7z M18.8,33.6l5-4.9
	l1.3,1.3c0.6,0.6,1.7,0.6,2.3,0l1.3-1.3l5,4.8H18.8z M37.7,33.6h-1.6l-6.2-6.1l7.8-7.8V33.6z"/>
</svg>
