<?xml version="1.0" encoding="utf-8"?>
<!-- Generator: Adobe Illustrator 19.0.0, SVG Export Plug-In . SVG Version: 6.00 Build 0)  -->
<svg version="1.1" id="Layer_1" xmlns="http://www.w3.org/2000/svg" xmlns:xlink="http://www.w3.org/1999/xlink" x="0px" y="0px"
	 viewBox="0 0 52.4 52.4" style="enable-background:new 0 0 52.4 52.4;" xml:space="preserve">
<style type="text/css">
	.st0{fill:#FFFFFF;}
</style>
<path id="XMLID_75_" class="st0" d="M26.2,0C11.8,0,0,11.7,0,26.2c0,14.5,11.7,26.2,26.2,26.2c14.5,0,26.2-11.7,26.2-26.2
	C52.4,11.7,40.7,0,26.2,0z M26.2,50.8c-13.6,0-24.6-11-24.6-24.6c0-13.6,11-24.6,24.6-24.6c13.6,0,24.6,11,24.6,24.6
	C50.8,39.8,39.8,50.8,26.2,50.8z"/>
<path id="XMLID_72_" class="st0" d="M31.1,13.1h-9.8c-1.8,0-3.3,1.5-3.3,3.3V36c0,1.8,1.5,3.3,3.3,3.3h9.8c1.8,0,3.3-1.5,3.3-3.3
	V16.4C34.4,14.6,33,13.1,31.1,13.1z M32.8,36c0,0.9-0.7,1.6-1.6,1.6h-9.8c-0.9,0-1.6-0.7-1.6-1.6V16.4c0-0.9,0.7-1.6,1.6-1.6h9.8
	c0.9,0,1.6,0.7,1.6,1.6V36z"/>
<path id="XMLID_69_" class="st0" d="M26.2,31.1c-1.4,0-2.5,1.1-2.5,2.5c0,1.4,1.1,2.5,2.5,2.5c1.4,0,2.5-1.1,2.5-2.5
	C28.7,32.2,27.6,31.1,26.2,31.1z M26.2,34.4c-0.5,0-0.8-0.4-0.8-0.8c0-0.5,0.4-0.8,0.8-0.8c0.5,0,0.8,0.4,0.8,0.8
	C27.1,34,26.7,34.4,26.2,34.4z"/>
<path id="XMLID_67_" class="st0" d="M28.7,16.4h-4.9c-0.5,0-0.8,0.4-0.8,0.8c0,0.5,0.4,0.8,0.8,0.8h4.9c0.5,0,0.8-0.4,0.8-0.8
	C29.5,16.7,29.1,16.4,28.7,16.4z"/>
</svg>
