<?xml version="1.0" encoding="utf-8"?>
<!-- Generator: Adobe Illustrator 19.0.0, SVG Export Plug-In . SVG Version: 6.00 Build 0)  -->
<svg version="1.1" id="Layer_1" xmlns="http://www.w3.org/2000/svg" xmlns:xlink="http://www.w3.org/1999/xlink" x="0px" y="0px"
	 viewBox="0 0 52.4 52.4" style="enable-background:new 0 0 52.4 52.4;" xml:space="preserve">
<style type="text/css">
	.st0{fill:#FFFFFF;}
</style>
<path class="st0" d="M26.2,0C11.7,0,0,11.7,0,26.2s11.7,26.2,26.2,26.2c14.5,0,26.2-11.7,26.2-26.2S40.7,0,26.2,0z M26.2,50.8
	c-13.6,0-24.6-11-24.6-24.6c0-13.6,11-24.6,24.6-24.6c13.6,0,24.6,11,24.6,24.6C50.8,39.8,39.8,50.8,26.2,50.8z"/>
<path class="st0" d="M30.1,30.1l6.6-14.4l-14.4,6.6l0,0l0,0.1l-0.1,0l0,0l-6.6,14.4L30,30.2l0,0L30.1,30.1L30.1,30.1L30.1,30.1z
	 M17.9,34.5l4.4-10.1l5.7,5.7L17.9,34.5z"/>
</svg>
