<?xml version="1.0" encoding="utf-8"?>
<!-- Generator: Adobe Illustrator 19.0.0, SVG Export Plug-In . SVG Version: 6.00 Build 0)  -->
<svg version="1.1" id="Layer_1" xmlns="http://www.w3.org/2000/svg" xmlns:xlink="http://www.w3.org/1999/xlink" x="0px" y="0px"
	 viewBox="0 0 47.9 47.9" style="enable-background:new 0 0 47.9 47.9;" xml:space="preserve">
<style type="text/css">
	.st0{fill:#0C0404;}
</style>
<path id="XMLID_5_" class="st0" d="M24,0C10.7,0,0,10.7,0,24c0,13.2,10.7,24,24,24c13.2,0,24-10.7,24-24C47.9,10.7,37.2,0,24,0z
	 M24,46.4C11.6,46.4,1.5,36.4,1.5,24C1.5,11.6,11.6,1.5,24,1.5c12.4,0,22.5,10.1,22.5,22.5C46.4,36.4,36.4,46.4,24,46.4z"/>
<path id="XMLID_2_" class="st0" d="M34.2,32.5L30,28.2c0.9-1.3,1.5-2.9,1.5-4.6c0-4.3-3.5-7.9-7.9-7.9c-4.3,0-7.9,3.5-7.9,7.9
	c0,4.3,3.5,7.9,7.9,7.9c2.1,0,4-0.8,5.4-2.2l4.2,4.2c0.3,0.3,0.7,0.3,1,0C34.5,33.2,34.5,32.7,34.2,32.5z M23.6,29.9
	c-3.5,0-6.4-2.8-6.4-6.4c0-3.5,2.8-6.4,6.4-6.4c3.5,0,6.4,2.8,6.4,6.4C29.9,27.1,27.1,29.9,23.6,29.9z"/>
</svg>
