<?xml version="1.0" encoding="utf-8"?>
<!-- Generator: Adobe Illustrator 19.0.0, SVG Export Plug-In . SVG Version: 6.00 Build 0)  -->
<svg version="1.1" id="Layer_1" xmlns="http://www.w3.org/2000/svg" xmlns:xlink="http://www.w3.org/1999/xlink" x="0px" y="0px"
	 viewBox="0 0 45 40" style="enable-background:new 0 0 45 40;" xml:space="preserve">
<style type="text/css">
	.st0{fill:#FFFFFF;}
</style>
<path id="XMLID_15_" class="st0" d="M22.5,40c2.4-1.8,4.6-3.8,6.7-5.9c1.1-1.1,2.1-2.2,3-3.4l0.3-0.3l0.4,0.2
	c3.7,2.5,7.8,4.3,12.1,5.5v-8.5c-2.6-0.9-5.1-2.2-7.4-3.7l-0.4-0.2l0.2-0.4c4.2-7.2,6.8-15,7.5-23.3h-8.2
	c-0.7,6.2-2.5,12.2-5.5,17.7l-0.3,0.6l-0.5-0.5c-4.5-5-7.4-11.2-8.4-17.8h-8.2c1.1,9.3,5.4,18.1,12.1,24.9l0.3,0.3l-0.3,0.3
	c-1,1.2-2,2.3-3.1,3.4l-0.3,0.3l-0.3-0.3C14.3,21.1,9.4,10.9,8.2,0H0c1.2,12.8,6.8,24.8,15.8,34.1C17.8,36.2,20.1,38.2,22.5,40z"/>
</svg>
